<?xml version="1.0" encoding="UTF-8"?>
<svg id="Layer_1" xmlns="http://www.w3.org/2000/svg" version="1.1" xmlns:xlink="http://www.w3.org/1999/xlink" viewBox="0 0 218.15 238.74">
  <!-- Generator: Adobe Illustrator 30.1.0, SVG Export Plug-In . SVG Version: 2.1.1 Build 136)  -->
  <defs>
    <style>
      .st0 {
        fill: #234455;
      }

      .st1 {
        fill: #e2a825;
      }

      .st2 {
        fill: none;
      }

      .st3 {
        fill: #d7dbe0;
      }

      .st4 {
        clip-path: url(#clippath);
      }
    </style>
    <clipPath id="clippath">
      <rect class="st2" x="74.75" width="143.4" height="200.27"/>
    </clipPath>
  </defs>
  <path class="st0" d="M167.63,190.27c.51,13.64-5.44,23.18-17.1,29.62-8.8,4.89-17.61,10.05-26.43,14.7-10.35,5.4-21.24,5.67-31.6,0-16.84-9.03-67.09-38.39-77.98-44.84C6.74,185.12-.26,172.48,0,159.86.27,132.53.27,105.23,0,77.91,0,62.95,8.56,51.88,19.7,45.17c7.78-4.63,15.29-9.28,23.06-13.66,10.36-5.93,20.99-6.44,31.34-.51,27.73,15.96,55.45,31.94,83.43,47.93,7.78,4.38,10.1,11.58,10.1,19.59-.26,16.23-.53,77.05,0,91.73M133.69,147.75v-34.55c0-5.4-1.81-9.01-6.74-12.11-20.21-12.88-41.19-24.22-62.18-36.08-2.6-1.29-4.93-2.82-8.29-2.06-13.72,3.1-23.05,14.17-23.31,28.6-.26,16.75-.26,32.74-.53,50,0,21.65,6.74,22.42,16.59,29.89,6.72,4.89,14.25,8.76,21.5,12.9,13.46,7.46,25.9,17,42.75,15.96,7.51-.51,19.42-9.54,19.69-17,.51-12.11.51-23.71.51-35.55"/>
  <path class="st3" d="M48.7,112.69v-29.37c0-6.44,2.34-8.76,8.29-4.89.26.26.53.26.79.53,24.35,13.39,18.14,13.64,17.61,41.75,0,5.93,2.85,11.85,6.74,16.23,5.96,7.23,15.27,10.84,23.31,15.21,3.89,2.06,9.08,4.14,11.65,7.99,1.57,2.32,1.81,5.42,2.08,8.25.26,5.14,0,7.99-.26,13.15-.51,7.46-6.46,9.79-10.1,7.46-15.27-9.54-30.3-18.8-46.11-27.32-9.32-5.16-14.5-12.62-13.99-23.71.26-8.5,0-16.75,0-25.26"/>
  <g class="st4">
    <path class="st1" d="M182.64,139.74c0-14.68-.51-29.36.26-44.05.53-13.92-4.4-23.46-17.35-29.64-11.15-5.14-21.25-12.11-31.86-18.04-16.85-9.79-33.43-19.32-50.26-29.11-7.51-4.4-7.25-5.42,0-10.31,15.8-10.82,30.82-11.6,47.66-1.29,22.8,13.92,46.38,26.28,69.42,40.2,10.63,6.19,16.06,16.23,16.06,28.86,0,28.86-.25,57.46,0,86.33,0,15.72-10.87,27.56-24.86,34-6.47,3.1-8.81,1.04-8.81-5.93-.26-17-.26-34-.26-51.02"/>
  </g>
</svg>