<?xml version="1.0" encoding="utf-8"?>
<!-- Generator: Adobe Illustrator 28.1.0, SVG Export Plug-In . SVG Version: 6.00 Build 0)  -->
<svg version="1.1" id="Laag_1" xmlns="http://www.w3.org/2000/svg" xmlns:xlink="http://www.w3.org/1999/xlink" x="0px" y="0px"
	 viewBox="0 0 339.4 92.7" style="enable-background:new 0 0 339.4 92.7;" xml:space="preserve">
<style type="text/css">
	.st0{fill:#004053;}
	.st1{fill:#D7DBE0;}
	.st2{fill:#F6A71C;}
	.st3{fill:#224355;}
	.st4{enable-background:new    ;}
</style>
<path class="st0" d="M64.8,73.9c0.2,5.3-2.1,9-6.6,11.5c-3.4,1.9-6.8,3.9-10.2,5.7c-4,2.1-8.2,2.2-12.2,0
	C29.2,87.6,9.8,76.2,5.6,73.7c-3-1.8-5.7-6.7-5.6-11.6c0.1-10.6,0.1-21.2,0-31.8c0-5.8,3.3-10.1,7.6-12.7c3-1.8,5.9-3.6,8.9-5.3
	c4-2.3,8.1-2.5,12.1-0.2c10.8,6.2,21.4,12.4,32.2,18.6c3,1.7,3.9,4.5,3.9,7.7C64.7,44.5,64.6,68.2,64.8,73.9 M51.7,57.3L51.7,57.3
	c0-4.5,0-8.9,0-13.4c0-2.1-0.8-3.5-2.6-4.7c-7.8-5-15.9-9.4-24-14c-1-0.5-1.9-1.1-3.2-0.8c-5.3,1.2-8.9,5.5-9,11.1
	C13,42.1,12.9,48.3,12.9,55c0,8.3,2.6,8.8,6.4,11.6c2.6,1.9,5.5,3.4,8.3,4.9c5.2,2.9,10,6.6,16.5,6.2c2.9-0.2,7.5-3.7,7.6-6.6
	C51.8,66.5,51.7,61.9,51.7,57.3"/>
<g>
	<path class="st1" d="M18.9,43.8c0-3.8,0-7.6,0-11.4c0-2.5,0.9-3.4,3.2-1.9c0.1,0.1,0.2,0.1,0.3,0.2c9.4,5.2,7,5.3,6.8,16.2
		c0,2.3,1.1,4.6,2.6,6.3c2.3,2.8,5.9,4.2,9,5.9c1.5,0.8,3.5,1.6,4.5,3.1c0.6,0.9,0.7,2.1,0.8,3.2c0.1,2,0,3.1-0.2,5.1
		c-0.2,2.9-2.5,3.8-3.9,2.9c-5.9-3.7-11.7-7.3-17.8-10.6c-3.6-2-5.6-4.9-5.4-9.2C19.1,50.3,18.9,47,18.9,43.8"/>
</g>
<path class="st2" d="M70.6,54.2c0-5.7-0.2-11.4,0.1-17.1c0.2-5.4-1.7-9.1-6.7-11.5c-4.3-2-8.2-4.6-12.3-7
	c-6.5-3.8-12.9-7.5-19.4-11.3c-2.9-1.7-2.8-2.1,0-4c6.1-4.2,11.9-4.5,18.4-0.5C59.4,8.2,68.5,13,77.4,18.4c4.1,2.4,6.2,6.3,6.2,11.2
	c0,11.2-0.1,22.3,0,33.5c0.1,6.1-4.2,10.7-9.6,13.2c-2.5,1.2-3.4,0.4-3.4-2.3C70.7,67.4,70.6,60.8,70.6,54.2"/>
<path class="st2" d="M90.2,30.5h0.5c0.6,0,1-0.2,1-0.7c0-0.4-0.3-0.8-1-0.8c-0.2,0-0.4,0-0.5,0C90.2,29.1,90.2,30.5,90.2,30.5z
	 M90.2,32.9h-0.7v-4.3c0.3,0,0.7-0.1,1.2-0.1c0.6,0,1.1,0.1,1.3,0.3c0.2,0.2,0.4,0.5,0.4,0.9c0,0.6-0.4,0.9-0.8,1v0
	c0.4,0.1,0.6,0.4,0.7,1c0.1,0.7,0.2,0.9,0.3,1.1h-0.7c-0.1-0.1-0.2-0.5-0.3-1.1c-0.1-0.5-0.4-0.8-0.9-0.8h-0.5
	C90.2,31.1,90.2,32.9,90.2,32.9z M90.9,27.5c-1.7,0-3.1,1.5-3.1,3.2c0,1.8,1.4,3.2,3.1,3.2c1.7,0,3-1.4,3-3.2S92.6,27.4,90.9,27.5
	L90.9,27.5L90.9,27.5z M90.9,26.9c2.1,0,3.7,1.7,3.7,3.8s-1.7,3.8-3.8,3.8s-3.8-1.7-3.8-3.9S88.8,26.9,90.9,26.9
	C90.9,26.9,90.9,26.9,90.9,26.9z"/>
<path class="st3" d="M116.1,24.7c0.1,0.3,0.2,0.6,0.2,0.9c0,0.6-0.2,1.1-0.6,1.5s-0.9,0.6-1.5,0.6c-0.9,0-1.5-0.4-1.9-1.2
	c-0.7-1.5-1.9-2.2-3.5-2.2h-2.6c-0.5,0-1,0.1-1.4,0.4c-1.4,0.9-2.2,2.1-2.2,3.5V46c0,0.5,0.1,1,0.4,1.4c0.9,1.4,2.1,2.1,3.5,2.1h2.3
	c1.6,0,2.8-0.7,3.5-2.2c0.4-0.8,1-1.2,1.9-1.2c0.6,0,1.1,0.2,1.5,0.6c0.4,0.4,0.6,0.9,0.6,1.5c0,0.3-0.1,0.6-0.2,0.9
	c-0.9,1.8-2.3,3.1-4.2,3.9c-0.9,0.4-1.9,0.6-2.9,0.6h-2.8c-1.4,0-2.9-0.5-4.1-1.3c-2.4-1.8-3.6-4-3.6-6.8V27.9
	c0-1.5,0.4-2.9,1.3-4.1c1.8-2.4,4-3.6,6.7-3.6h2.3c1.5,0,3,0.4,4.3,1.2C114.4,22.2,115.4,23.4,116.1,24.7"/>
<path class="st3" d="M139.9,45.6c0,2.7-1.2,5-3.6,6.8c-1.2,0.9-2.6,1.3-4.1,1.3h-2.7c-1.8,0-3.3-0.5-4.5-1.3c-2.4-1.8-3.6-4-3.6-6.8
	V28.3c0-2.7,1.2-5,3.6-6.8c1.2-0.9,2.6-1.3,4.1-1.3h2.7c1.8,0,3.3,0.5,4.5,1.3c2.4,1.8,3.6,4,3.6,6.8L139.9,45.6L139.9,45.6z
	 M135.8,45.6V27.9c0-0.5-0.1-1-0.4-1.4c-0.9-1.4-2.1-2.1-3.5-2.1h-2.6c-0.5,0-1,0.1-1.4,0.4c-1.4,0.9-2.2,2-2.2,3.5v17.3
	c0,1.4,0.7,2.6,2.1,3.5c0.4,0.3,0.9,0.4,1.4,0.4h3c0.5,0,1-0.1,1.4-0.4C135,48.2,135.8,47,135.8,45.6"/>
<path class="st3" d="M163.6,51.4c0,0.6-0.2,1.1-0.6,1.5c-0.4,0.4-0.9,0.6-1.5,0.6c-0.9,0-1.5-0.4-1.9-1.2l-10.1-20.5
	c0-0.1-0.1-0.1-0.2-0.1c0,0-0.1,0.1-0.1,0.1v19.6c0,0.6-0.2,1.1-0.6,1.5c-0.4,0.4-0.9,0.6-1.5,0.6c-0.6,0-1.1-0.2-1.5-0.6
	s-0.6-0.9-0.6-1.5v-29c0-0.6,0.2-1.1,0.6-1.5s0.9-0.6,1.5-0.6c0.9,0,1.5,0.4,1.9,1.2L159.2,42c0,0,0.1,0.1,0.2,0c0,0,0.1,0,0.1-0.1
	V22.4c0-0.6,0.2-1.1,0.6-1.5c0.4-0.4,0.9-0.6,1.5-0.6s1.1,0.2,1.5,0.6c0.4,0.4,0.6,0.9,0.6,1.5L163.6,51.4L163.6,51.4z"/>
<path class="st3" d="M189.9,23l-8.6,29c-0.3,1-0.9,1.5-2,1.5s-1.7-0.5-2-1.5l-8.6-29c-0.1-0.2-0.1-0.4-0.1-0.6
	c0-0.6,0.2-1.1,0.6-1.5s0.9-0.6,1.5-0.6c1,0,1.7,0.5,2,1.5l6.4,21.9c0,0,0,0,0.1,0.1c0.1,0,0.1,0,0.1-0.1l6.4-21.9
	c0.3-1,1-1.5,2-1.5c0.6,0,1.1,0.2,1.5,0.6c0.4,0.4,0.6,0.9,0.6,1.5C190,22.6,190,22.8,189.9,23"/>
<path class="st3" d="M199.3,51.4c0,0.6-0.2,1.1-0.6,1.5c-0.4,0.4-0.9,0.6-1.5,0.6c-0.6,0-1.1-0.2-1.5-0.6c-0.4-0.4-0.6-0.9-0.6-1.5
	v-29c0-0.6,0.2-1.1,0.6-1.5c0.4-0.4,0.9-0.6,1.5-0.6s1.1,0.2,1.5,0.6c0.4,0.4,0.6,0.9,0.6,1.5V51.4z"/>
<path class="st3" d="M221.3,51.4c0,0.6-0.2,1.1-0.6,1.5c-0.4,0.4-0.9,0.6-1.5,0.6h-12.6c-0.6,0-1.1-0.2-1.5-0.6
	c-0.4-0.4-0.6-0.9-0.6-1.5v-29c0-0.6,0.2-1.1,0.6-1.5c0.4-0.4,0.9-0.6,1.5-0.6s1.1,0.2,1.5,0.6c0.4,0.4,0.6,0.9,0.6,1.5v27h10.5
	c0.6,0,1.1,0.2,1.5,0.6C221.1,50.3,221.3,50.8,221.3,51.4"/>
<path class="st3" d="M245,45.9c0,1.5-0.5,2.9-1.3,4.1c-1.8,2.4-4,3.6-6.8,3.6h-2.7c-1.5,0-2.9-0.5-4.1-1.3c-2.4-1.8-3.6-4-3.6-6.8
	V27.9c0-1.5,0.5-2.9,1.3-4.1c1.8-2.4,4-3.6,6.8-3.6h2.4c1,0,2,0.2,2.9,0.6c1.9,0.9,3.3,2.2,4.2,3.9c0.1,0.3,0.2,0.6,0.2,0.9
	c0,0.6-0.2,1.1-0.6,1.5c-0.4,0.4-0.9,0.6-1.5,0.6c-0.9,0-1.5-0.4-1.9-1.2c-0.7-1.4-1.9-2.2-3.5-2.2h-2.7c-0.5,0-1,0.1-1.4,0.4
	c-1.4,0.9-2.1,2-2.1,3.5v17.3c0,1.4,0.6,2.5,1.9,3.3c0.5,0.3,1.1,0.5,1.7,0.5h3c0.5,0,1-0.1,1.4-0.4c1.4-0.9,2.1-2.1,2.1-3.5v-6.4
	c0-0.2-0.1-0.3-0.2-0.3h-2.7c-0.6,0-1.1-0.2-1.5-0.6s-0.6-0.9-0.6-1.5s0.2-1.1,0.6-1.5s0.9-0.6,1.5-0.6h5c0.6,0,1.1,0.2,1.5,0.6
	s0.6,0.9,0.6,1.5L245,45.9L245,45.9z"/>
<path class="st3" d="M268.6,46c0,1.5-0.5,2.9-1.3,4.1c-1.8,2.4-4,3.6-6.8,3.6h-2.7c-1.5,0-2.9-0.5-4.1-1.3c-2.4-1.8-3.6-4-3.6-6.8
	V22.4c0-0.6,0.2-1.1,0.6-1.5c0.4-0.4,0.9-0.6,1.5-0.6s1.1,0.2,1.5,0.6c0.4,0.4,0.6,0.9,0.6,1.5v23.2c0,1.5,0.7,2.6,2.2,3.5
	c0.4,0.3,0.9,0.4,1.4,0.4h3c0.5,0,1-0.1,1.4-0.4c1.4-0.9,2.1-2,2.1-3.5V22.4c0-0.6,0.2-1.1,0.6-1.5c0.4-0.4,0.9-0.6,1.5-0.6
	s1.1,0.2,1.5,0.6c0.4,0.4,0.6,0.9,0.6,1.5L268.6,46L268.6,46z"/>
<path class="st3" d="M292.2,45.6c0,2.7-1.2,5-3.6,6.8c-1.2,0.9-2.6,1.3-4.1,1.3h-3.1c-1.5,0-2.9-0.5-4.1-1.3c-2.4-1.8-3.6-4-3.6-6.8
	V28.3c0-2.7,1.2-5,3.6-6.8c1.2-0.9,2.6-1.3,4.1-1.3h3.1c1.5,0,2.9,0.5,4.1,1.3c2.4,1.8,3.6,4,3.6,6.8L292.2,45.6L292.2,45.6z
	 M288,45.6V27.9c0-0.6-0.2-1.2-0.5-1.6c-0.9-1.2-2-1.9-3.4-1.9h-2.6c-0.5,0-1,0.1-1.4,0.4c-1.4,0.9-2.2,2-2.2,3.5v17.3
	c0,1.4,0.7,2.6,2.1,3.5c0.4,0.3,0.9,0.4,1.4,0.4h3c0.5,0,1-0.1,1.4-0.4C287.3,48.2,288,47,288,45.6"/>
<path class="st3" d="M315.8,46c0,1.5-0.5,2.9-1.3,4.1c-1.8,2.4-4,3.6-6.8,3.6h-2.3c-2.7,0-5-1.2-6.8-3.6c-0.9-1.2-1.3-2.6-1.3-4.1
	V22.4c0-0.6,0.2-1.1,0.6-1.5c0.4-0.4,0.9-0.6,1.5-0.6s1,0.2,1.5,0.6c0.4,0.4,0.6,0.9,0.6,1.5v23.2c0,1.5,0.7,2.6,2.1,3.5
	c0.4,0.3,0.9,0.4,1.4,0.4h3c0.5,0,1-0.1,1.4-0.4c1.4-0.9,2.1-2,2.1-3.5V22.4c0-0.6,0.2-1.1,0.6-1.5c0.4-0.4,0.9-0.6,1.5-0.6
	s1.1,0.2,1.5,0.6c0.4,0.4,0.6,0.9,0.6,1.5L315.8,46L315.8,46z"/>
<path class="st3" d="M339.4,45.9c0,1.5-0.5,2.9-1.3,4.1c-1.8,2.4-4,3.6-6.8,3.6h-2.5c-1.2,0-2.5-0.3-3.5-0.9
	c-2.3-1.3-3.7-3.2-4.2-5.6c-0.1-0.6,0-1.1,0.3-1.6c0.3-0.5,0.8-0.8,1.4-0.9c0.6-0.1,1.1,0,1.6,0.3c0.5,0.3,0.8,0.8,0.9,1.3
	c0.2,1.3,1,2.2,2.3,2.9c0.3,0.2,0.9,0.3,1.3,0.3h2.5c1.4,0,2.5-0.6,3.3-1.9c0.3-0.5,0.5-1.1,0.5-1.7v-1.8c0-1.2-0.4-2.3-1.2-3.2
	s-1.8-1.5-3-1.7l-2.5-0.4c-2.2-0.4-4.1-1.4-5.5-3.1s-2.2-3.7-2.2-6v-1.4c0-2.2,0.8-4.1,2.4-5.7c1.6-1.6,3.5-2.4,5.7-2.4h2.3
	c2,0,3.7,0.6,5.2,1.9c1.5,1.3,2.4,2.9,2.7,4.9c0.1,0.6,0,1.1-0.4,1.6s-0.8,0.8-1.4,0.8c-0.6,0.1-1.1,0-1.6-0.4
	c-0.5-0.4-0.8-0.9-0.9-1.6c0-0.6-0.3-1.1-0.7-1.5c-0.9-1-1.9-1.5-3.1-1.5h-2.6c-0.5,0-1,0.1-1.4,0.4c-1.4,0.9-2.2,2.1-2.2,3.6v1.6
	c0,0.7,0.2,1.5,0.5,2.1c0.8,1.5,2,2.4,3.6,2.6l2.5,0.4c2.9,0.5,5.1,2,6.6,4.7c0.7,1.3,1,2.7,1,4.2L339.4,45.9L339.4,45.9z"/>
<g class="st4">
	<path class="st2" d="M170.3,67.6c-0.1,0-0.2,0-0.4,0.1s-0.3,0.1-0.5,0.1c0,0.1,0,0.2,0,0.4c0,0.1,0,0.3,0,0.4c0,0.1,0,0.3,0,0.5
		c0,0.2,0,0.5,0,0.8c0,0.6,0.1,1,0.1,1.3c0,1-0.2,1.8-0.5,2.4c-0.1,0.1-0.2,0.2-0.3,0.2s-0.3-0.1-0.4-0.2s-0.3-0.3-0.3-0.4
		c-0.1-0.3-0.2-0.8-0.2-1.3c0-0.1,0-0.3,0-0.5c0-0.3,0-0.7,0.1-1.2c0-0.2,0-0.3,0-0.4c0-0.1,0-0.3,0-0.4c0-0.4,0-0.7-0.1-0.9
		c0-0.2-0.1-0.3-0.4-0.4c-0.3-0.1-0.4-0.2-0.5-0.3c0,0,0-0.1,0-0.1c0-0.1,0-0.1,0-0.2s0-0.2,0.1-0.3c0.1,0,0.2-0.1,0.3-0.2
		s0.2-0.2,0.3-0.2c0.1,0,0.1,0,0.1,0c0.1-0.3,0.1-0.6,0.1-0.9c0-0.3,0-0.7,0-1c0-0.1,0-0.4,0-0.8c0-0.4-0.1-0.9-0.1-1.6
		c0-0.1,0-0.1,0-0.2c0-0.1,0-0.1,0-0.2c-0.2-0.1-0.4-0.2-0.7-0.4c-0.2-0.2-0.3-0.4-0.3-0.6c0-0.3,0.2-0.5,0.6-0.5
		c0.3,0,0.7-0.1,1.2-0.3c0.5-0.1,1.2-0.3,2-0.6c1.3-0.4,2.4-0.7,3.3-0.7c0.2,0,0.4,0.1,0.6,0.2s0.2,0.3,0.2,0.4
		c0,0.2-0.1,0.4-0.2,0.6s-0.3,0.3-0.6,0.4h-0.1c-0.1,0-0.2,0-0.4-0.1s-0.2-0.1-0.3-0.1c-0.3,0-0.6,0.1-0.9,0.2
		c-0.3,0.1-0.7,0.2-1,0.4c-0.5,0.2-0.9,0.4-1.2,0.5c-0.3,0.1-0.5,0.2-0.7,0.2c0,0.4,0,0.8-0.1,1.1c0,0.4,0,0.8,0,1.1
		c0,0.4,0,0.8,0,1.1c0,0.4,0,0.8,0.1,1.1c0.1,0,0.1,0,0.2,0s0.1,0,0.1,0c0.2,0,0.6-0.1,1.3-0.3c0.2-0.1,0.5-0.1,0.7-0.2
		s0.4-0.1,0.5-0.1c0,0,0,0,0.1,0c0,0,0.1,0,0.1,0c0.2,0,0.4,0.1,0.4,0.3c-0.1,0.5-0.4,0.8-0.9,1.1L170.3,67.6z"/>
</g>
<g class="st4">
	<path class="st2" d="M175.3,70.9c-0.2,0-0.4-0.1-0.5-0.2s-0.3-0.2-0.5-0.3c-0.4-0.2-0.7-0.5-0.9-0.9s-0.3-0.8-0.3-1.3
		c0-0.3,0-0.6,0.1-0.9c0.1-0.4,0.2-0.7,0.2-1c0-0.1,0.1-0.3,0.2-0.5c0.1-0.2,0.3-0.5,0.5-0.7s0.4-0.4,0.7-0.6s0.5-0.2,0.8-0.2
		c0.1,0,0.2,0,0.3,0.1c0.2,0.1,0.3,0.2,0.5,0.3c0.2,0.1,0.4,0.1,0.5,0.2c0.2,0.1,0.4,0.1,0.5,0.2s0.3,0.2,0.5,0.3
		c0.1,0.1,0.2,0.2,0.3,0.4s0.1,0.3,0.2,0.4c0.1,0.1,0.1,0.2,0.1,0.4s0,0.2,0,0.4v0.3c0,0.4-0.1,0.7-0.2,1c-0.1,0.3-0.3,0.6-0.5,0.9
		c-0.1,0.2-0.2,0.3-0.4,0.5c-0.2,0.2-0.3,0.4-0.5,0.6s-0.4,0.3-0.6,0.4s-0.4,0.2-0.6,0.2c-0.1,0-0.1,0-0.2,0s-0.1,0-0.2,0H175.3z
		 M177.1,66.7c0-0.3-0.1-0.6-0.4-0.7c-0.2-0.2-0.5-0.2-0.8-0.2c-0.2,0-0.4,0.1-0.6,0.3c-0.2,0.2-0.3,0.4-0.4,0.7s-0.2,0.5-0.3,0.8
		s-0.1,0.6-0.1,0.8c0,0,0,0.1,0,0.3c0,0.1,0,0.3,0.1,0.4s0.1,0.3,0.2,0.4s0.2,0.2,0.3,0.2c0.1,0,0.2,0,0.4-0.1s0.2-0.1,0.4-0.1
		c0.2-0.1,0.4-0.3,0.5-0.5s0.3-0.4,0.3-0.7c0.1-0.2,0.2-0.5,0.2-0.7S177,67,177.1,66.7L177.1,66.7z"/>
	<path class="st2" d="M181.8,70.6C181.8,70.6,181.8,70.6,181.8,70.6c0,0.1,0,0.1,0,0.1c0,0.2-0.1,0.3-0.2,0.4
		c-0.2,0.1-0.3,0.1-0.5,0.1c-0.3,0-0.5-0.2-0.7-0.5s-0.3-0.7-0.4-1.1c-0.1-0.4-0.2-0.9-0.2-1.3c0-0.4,0-0.7,0-0.9c0-0.6,0-1.1,0-1.5
		s0-0.9,0-1.4c0-0.6,0-1.3,0.1-1.9c0.1-0.6,0.1-1.3,0.1-1.9c0-0.2,0-0.3,0.1-0.4c0.1-0.1,0.2-0.2,0.3-0.3c0.1,0,0.2,0,0.3,0
		s0.3,0,0.4,0.1s0.2,0.1,0.3,0.2s0.1,0.2,0.1,0.4c0,0.3,0,0.6-0.1,0.9s-0.1,0.6-0.1,0.9c0,0.4,0,0.8,0,1.2c0,0.4,0,0.7,0,1.1
		c0,0.3,0,0.6,0,0.9c0,0.3,0,0.6,0,0.8c0,0.2,0,0.4,0,0.6c0,0.2,0,0.4,0,0.5c0,0.5,0,1,0.1,1.5C181.6,69.7,181.7,70.2,181.8,70.6z"
		/>
</g>
<g class="st4">
	<path class="st2" d="M185.3,70.6C185.3,70.6,185.3,70.6,185.3,70.6c0,0.1,0,0.1,0,0.1c0,0.2-0.1,0.3-0.2,0.4
		c-0.2,0.1-0.3,0.1-0.5,0.1c-0.3,0-0.5-0.2-0.7-0.5s-0.3-0.7-0.4-1.1c-0.1-0.4-0.2-0.9-0.2-1.3c0-0.4,0-0.7,0-0.9c0-0.6,0-1.1,0-1.5
		s0-0.9,0-1.4c0-0.6,0-1.3,0.1-1.9c0.1-0.6,0.1-1.3,0.1-1.9c0-0.2,0-0.3,0.1-0.4c0.1-0.1,0.2-0.2,0.3-0.3c0.1,0,0.2,0,0.3,0
		s0.3,0,0.4,0.1s0.2,0.1,0.3,0.2s0.1,0.2,0.1,0.4c0,0.3,0,0.6-0.1,0.9s-0.1,0.6-0.1,0.9c0,0.4,0,0.8,0,1.2c0,0.4,0,0.7,0,1.1
		c0,0.3,0,0.6,0,0.9c0,0.3,0,0.6,0,0.8c0,0.2,0,0.4,0,0.6c0,0.2,0,0.4,0,0.5c0,0.5,0,1,0.1,1.5C185.1,69.7,185.2,70.2,185.3,70.6z"
		/>
</g>
<g class="st4">
	<path class="st2" d="M188.6,70.9c-0.2,0-0.4-0.1-0.5-0.2s-0.3-0.2-0.5-0.3c-0.4-0.2-0.7-0.5-0.9-0.9s-0.3-0.8-0.3-1.3
		c0-0.3,0-0.6,0.1-0.9c0.1-0.4,0.2-0.7,0.2-1c0-0.1,0.1-0.3,0.2-0.5c0.1-0.2,0.3-0.5,0.5-0.7s0.4-0.4,0.7-0.6s0.5-0.2,0.8-0.2
		c0.1,0,0.2,0,0.3,0.1c0.2,0.1,0.3,0.2,0.5,0.3c0.2,0.1,0.4,0.1,0.5,0.2c0.2,0.1,0.4,0.1,0.5,0.2s0.3,0.2,0.5,0.3
		c0.1,0.1,0.2,0.2,0.3,0.4s0.1,0.3,0.2,0.4c0.1,0.1,0.1,0.2,0.1,0.4s0,0.2,0,0.4v0.3c0,0.4-0.1,0.7-0.2,1c-0.1,0.3-0.3,0.6-0.5,0.9
		c-0.1,0.2-0.2,0.3-0.4,0.5c-0.2,0.2-0.3,0.4-0.5,0.6s-0.4,0.3-0.6,0.4s-0.4,0.2-0.6,0.2c-0.1,0-0.1,0-0.2,0s-0.1,0-0.2,0H188.6z
		 M190.3,66.7c0-0.3-0.1-0.6-0.4-0.7c-0.2-0.2-0.5-0.2-0.8-0.2c-0.2,0-0.4,0.1-0.6,0.3c-0.2,0.2-0.3,0.4-0.4,0.7s-0.2,0.5-0.3,0.8
		s-0.1,0.6-0.1,0.8c0,0,0,0.1,0,0.3c0,0.1,0,0.3,0.1,0.4s0.1,0.3,0.2,0.4s0.2,0.2,0.3,0.2c0.1,0,0.2,0,0.4-0.1s0.2-0.1,0.4-0.1
		c0.2-0.1,0.4-0.3,0.5-0.5s0.3-0.4,0.3-0.7c0.1-0.2,0.2-0.5,0.2-0.7S190.3,67,190.3,66.7L190.3,66.7z"/>
	<path class="st2" d="M193.2,68.7c0-0.2,0-0.5-0.1-0.7s-0.1-0.4-0.1-0.7c0-0.3,0-0.7-0.1-1s-0.1-0.6-0.1-1c0-0.2,0-0.4,0.1-0.6
		s0.2-0.3,0.4-0.3c0.4,0,0.7,0.1,0.8,0.3s0.2,0.4,0.2,0.7c0,0.3,0,0.6,0.1,0.9s0.1,0.6,0.1,1c0,0.2,0,0.3,0,0.5s0,0.3,0.1,0.4
		c0.1-0.1,0.2-0.2,0.2-0.3c0.1-0.1,0.1-0.3,0.2-0.4c0.1-0.1,0.1-0.3,0.2-0.4c0.1-0.1,0.1-0.2,0.2-0.3c0.1-0.1,0.2-0.3,0.2-0.4
		s0.1-0.3,0.2-0.5s0.2-0.3,0.3-0.4s0.2-0.2,0.3-0.2c0.1,0,0.2,0.1,0.3,0.1s0.2,0.1,0.3,0.1s0.2,0.1,0.2,0.2c0.1,0.1,0.1,0.2,0.1,0.4
		c0,0.5,0.1,1,0.2,1.5s0.3,0.9,0.4,1.3c0.2-0.4,0.4-0.7,0.5-1.2s0.3-0.9,0.4-1.3s0.2-0.8,0.3-1.1c0.1-0.3,0.2-0.6,0.3-0.8
		c0.1-0.1,0.2-0.2,0.3-0.2c0.2-0.1,0.3-0.1,0.4-0.1c0.2,0,0.3,0.1,0.5,0.2c0.1,0.1,0.2,0.3,0.2,0.4c0,0.1,0,0.2-0.1,0.4
		s-0.1,0.4-0.2,0.7c-0.1,0.3-0.2,0.5-0.3,0.8c-0.1,0.3-0.2,0.6-0.3,0.8s-0.2,0.5-0.3,0.7s-0.1,0.3-0.2,0.4c-0.1,0.2-0.2,0.5-0.3,0.8
		s-0.2,0.5-0.3,0.7c-0.1,0.2-0.3,0.4-0.4,0.5s-0.4,0.2-0.7,0.2c-0.3,0-0.5-0.1-0.7-0.3s-0.3-0.4-0.4-0.7c-0.1-0.3-0.2-0.6-0.3-1
		c-0.1-0.3-0.2-0.6-0.4-0.9c-0.1,0.1-0.2,0.3-0.3,0.5c-0.1,0.2-0.2,0.4-0.3,0.6s-0.2,0.4-0.3,0.6s-0.2,0.4-0.3,0.5
		c-0.1,0.1-0.1,0.1-0.1,0.2c0,0.1-0.1,0.1-0.1,0.2s-0.1,0.1-0.2,0.1s-0.2,0.1-0.4,0.1c-0.2,0-0.4-0.1-0.6-0.2
		c-0.1-0.1-0.2-0.3-0.3-0.5c-0.1-0.2-0.1-0.4-0.1-0.7S193.2,68.9,193.2,68.7L193.2,68.7z"/>
	<path class="st2" d="M206.3,65.8c0-0.3,0-0.6,0-0.9s0.1-0.6,0.2-0.9c0,0,0,0,0.1-0.1c0.1,0,0.1-0.1,0.2-0.1c0,0,0.1,0,0.1,0
		s0.1,0,0.1,0c0.2,0,0.4,0.1,0.6,0.2c0.2,0.1,0.3,0.3,0.3,0.5c0,0.2,0,0.4-0.1,0.5s-0.1,0.3-0.1,0.5c0,0.3,0,0.6,0,0.8s0,0.4,0,0.5
		c0,0.6,0,1.1,0.1,1.6c0,0.5,0.1,0.8,0.1,1.1c0.2,0,0.4-0.2,0.6-0.5s0.5-0.7,0.7-1.1s0.4-0.9,0.6-1.3c0.2-0.5,0.3-0.9,0.5-1.2
		c0-0.2,0.1-0.3,0.1-0.5s0-0.3,0-0.4s0.1-0.2,0.2-0.3c0.1-0.1,0.3-0.1,0.6-0.1c0,0,0,0,0,0c0,0,0,0,0,0c0.1,0,0.2,0,0.3,0.1
		c0.1,0.1,0.2,0.2,0.3,0.3c0,0.7,0,1.2-0.1,1.6s-0.1,0.7-0.1,1c0,0.6,0,1,0.1,1.5c0.1,0.4,0.2,0.7,0.4,1c0.1,0.1,0.1,0.2,0.2,0.2
		c0.1,0.1,0.1,0.2,0.2,0.3c0,0.1-0.1,0.2-0.1,0.3s-0.1,0.1-0.2,0.1s-0.1,0-0.2,0.1s-0.2,0-0.2,0.1c-0.3-0.1-0.5-0.2-0.6-0.3
		s-0.3-0.3-0.4-0.6c-0.1-0.2-0.2-0.5-0.2-0.7s-0.1-0.5-0.1-0.8l-0.1,0.1c-0.1,0.2-0.2,0.5-0.4,0.8s-0.3,0.6-0.6,1
		c-0.2,0.3-0.5,0.6-0.7,0.8s-0.6,0.3-0.9,0.3c-0.3,0-0.6-0.1-0.8-0.2s-0.4-0.4-0.5-0.7s-0.2-0.7-0.2-1.2s-0.1-1.1-0.1-1.8
		c0-0.2,0-0.3,0-0.5c0-0.2,0-0.3,0-0.5V65.8z"/>
	<path class="st2" d="M215.6,67.3c0.2,0.4,0.5,0.9,0.7,1.3c0.2,0.5,0.3,1,0.3,1.5c0,0.3,0,0.6-0.1,0.8s-0.2,0.5-0.4,0.7
		c-0.2,0.2-0.4,0.4-0.6,0.5c-0.2,0.1-0.5,0.2-0.8,0.2c-0.2,0-0.5-0.1-0.7-0.3c-0.2-0.2-0.3-0.4-0.3-0.7c0-0.1,0.1-0.2,0.1-0.2
		s0.1-0.1,0.3-0.1c0.1,0.1,0.3,0.2,0.4,0.2c0.2,0,0.4-0.1,0.5-0.3s0.2-0.4,0.2-0.7c0-0.1,0-0.2,0-0.2c-0.1-0.5-0.3-1-0.5-1.4
		c-0.2-0.4-0.4-0.8-0.6-1.2s-0.4-0.7-0.5-1.1s-0.2-0.7-0.2-1c0-0.3,0-0.6,0.1-0.9s0.1-0.6,0.2-0.8s0.3-0.5,0.5-0.6s0.4-0.2,0.7-0.2
		c0,0,0.1,0,0.1,0s0.1,0,0.1,0c0.1,0,0.2,0.1,0.3,0.2c0.1,0.1,0.1,0.2,0.2,0.3c0,0.1,0,0.2-0.1,0.2s-0.1,0.1-0.2,0.2
		c-0.1,0.2-0.2,0.4-0.3,0.6c-0.1,0.2-0.1,0.5-0.1,0.7v0.4c0,0.1,0,0.2,0.1,0.4s0.1,0.3,0.2,0.5s0.2,0.3,0.2,0.5
		c0.1,0.1,0.1,0.3,0.2,0.3L215.6,67.3z"/>
	<path class="st2" d="M222.9,73.4c0-0.3,0-0.6,0-0.9s0-0.6,0-0.9c0-0.2,0-0.5,0-0.7s0-0.5,0-0.7v-0.3c-0.1,0-0.1,0-0.2,0
		c-0.1,0-0.1,0-0.2,0c-0.3,0-0.6-0.1-0.7-0.2s-0.2-0.3-0.2-0.5c0-0.1,0-0.2,0.1-0.2s0.2-0.1,0.4-0.1s0.3-0.1,0.4-0.1
		c0.1,0,0.3-0.1,0.4-0.1c0-1,0.1-1.9,0.1-2.8c0.1-0.9,0.1-1.7,0.1-2.3c0-0.3,0-0.6,0-1c0-0.4,0.1-0.7,0.1-1c0-0.3,0.1-0.7,0.2-0.9
		s0.2-0.5,0.3-0.6l0.1-0.1c0.1-0.1,0.2-0.3,0.4-0.4c0.1-0.1,0.3-0.2,0.5-0.2c0.1,0,0.1,0,0.2,0.1s0.2,0.1,0.3,0.1s0.2,0.1,0.2,0.2
		s0.1,0.1,0.1,0.2c0,0.1,0,0.2,0,0.3s-0.1,0.1-0.1,0.2s-0.1,0.1-0.1,0.1s-0.1,0.1-0.1,0.1c-0.1,0.1-0.1,0.2-0.2,0.4
		s-0.1,0.3-0.1,0.4c0,0.1-0.1,0.3-0.1,0.4s0,0.2,0,0.3c0,0.6-0.1,1-0.1,1.5s-0.1,0.9-0.1,1.3s0,0.8-0.1,1.2c0,0.4,0,0.8,0,1.2
		c0,0.1,0,0.2,0,0.3s0,0.2,0,0.3c0,0.2,0,0.2,0,0.3s0.1,0,0.3,0c0.1,0,0.3,0,0.4,0s0.3-0.1,0.5-0.1c0.2,0,0.3-0.1,0.4-0.1
		s0.2,0,0.3,0c0.2,0,0.3,0,0.4,0.1s0.1,0.2,0.1,0.4c0,0.2-0.2,0.4-0.4,0.5s-0.5,0.2-0.8,0.3c-0.3,0.1-0.5,0.2-0.8,0.3
		s-0.4,0.3-0.4,0.5c0,0.6,0,1.3,0,1.9c0,0.7,0.1,1.3,0.1,1.8c0,0.6,0.1,1.1,0.1,1.5s0,0.8,0,1c0,0.2-0.1,0.4-0.2,0.4
		s-0.3,0.1-0.4,0.1c-0.2,0-0.4-0.1-0.6-0.3s-0.2-0.5-0.3-0.8s-0.1-0.6-0.1-0.9c0-0.3,0-0.6,0-0.8V73.4z"/>
	<path class="st2" d="M229.4,70.9c-0.2,0-0.4-0.1-0.5-0.2s-0.3-0.2-0.5-0.3c-0.4-0.2-0.7-0.5-0.9-0.9s-0.3-0.8-0.3-1.3
		c0-0.3,0-0.6,0.1-0.9c0.1-0.4,0.2-0.7,0.2-1c0-0.1,0.1-0.3,0.2-0.5c0.1-0.2,0.3-0.5,0.5-0.7s0.4-0.4,0.7-0.6s0.5-0.2,0.8-0.2
		c0.1,0,0.2,0,0.3,0.1c0.2,0.1,0.3,0.2,0.5,0.3s0.4,0.1,0.5,0.2s0.4,0.1,0.5,0.2s0.3,0.2,0.5,0.3c0.1,0.1,0.2,0.2,0.3,0.4
		s0.1,0.3,0.2,0.4c0.1,0.1,0.1,0.2,0.1,0.4s0,0.2,0,0.4v0.3c0,0.4-0.1,0.7-0.2,1c-0.1,0.3-0.3,0.6-0.5,0.9c-0.1,0.2-0.2,0.3-0.4,0.5
		c-0.2,0.2-0.3,0.4-0.5,0.6s-0.4,0.3-0.6,0.4s-0.4,0.2-0.6,0.2c-0.1,0-0.1,0-0.2,0s-0.1,0-0.2,0H229.4z M231.2,66.7
		c0-0.3-0.1-0.6-0.4-0.7s-0.5-0.2-0.8-0.2c-0.2,0-0.4,0.1-0.6,0.3s-0.3,0.4-0.4,0.7s-0.2,0.5-0.3,0.8s-0.1,0.6-0.1,0.8
		c0,0,0,0.1,0,0.3c0,0.1,0,0.3,0.1,0.4s0.1,0.3,0.2,0.4s0.2,0.2,0.3,0.2c0.1,0,0.2,0,0.4-0.1s0.2-0.1,0.4-0.1
		c0.2-0.1,0.4-0.3,0.5-0.5s0.3-0.4,0.3-0.7c0.1-0.2,0.2-0.5,0.2-0.7S231.1,67,231.2,66.7L231.2,66.7z"/>
	<path class="st2" d="M234,70.5c0-0.1,0-0.2,0-0.3c0-0.2,0-0.4,0-0.6c0-0.2,0-0.5,0-0.7s0-0.5,0-0.7c0-0.2,0-0.4,0-0.6s0-0.2,0-0.3
		v-0.6c0-0.3,0-0.5,0-0.8s0-0.5,0-0.8v-0.1c0-0.1,0-0.2-0.1-0.3s-0.1-0.2-0.1-0.3c0-0.2,0.1-0.3,0.2-0.4c0.1-0.1,0.2-0.1,0.4-0.1
		c0.2,0,0.4,0,0.5,0.1c0.1,0.1,0.2,0.2,0.3,0.3c0.1,0.1,0.1,0.2,0.1,0.4s0,0.3,0,0.4l0.1,0.9c0.1-0.1,0.2-0.2,0.4-0.4
		c0.1-0.2,0.3-0.4,0.4-0.6s0.3-0.4,0.4-0.6c0.2-0.2,0.3-0.4,0.5-0.5c0.1,0,0.2-0.1,0.4-0.1c0.3,0,0.5,0.1,0.7,0.2
		c0.2,0.1,0.3,0.3,0.4,0.5c0,0.1-0.1,0.2-0.2,0.4s-0.2,0.3-0.4,0.4c-0.1,0.1-0.3,0.3-0.4,0.5s-0.3,0.3-0.4,0.5
		c-0.2,0.2-0.4,0.4-0.5,0.7c-0.2,0.3-0.3,0.5-0.5,0.8s-0.3,0.5-0.4,0.8c-0.1,0.3-0.1,0.5-0.1,0.6c0,0.1,0,0.2,0,0.4s0,0.3,0,0.4
		c0,0.1,0,0.3,0,0.4s-0.1,0.3-0.1,0.4s-0.2,0.2-0.3,0.3s-0.3,0.1-0.5,0.1c-0.2,0-0.4-0.1-0.5-0.2S234,70.8,234,70.5L234,70.5z"/>
	<path class="st2" d="M245.1,67.3c0,0.2,0,0.4,0,0.6s0,0.5,0.1,0.7c0,0.2,0.1,0.5,0.1,0.7s0.2,0.3,0.3,0.4c0.2-0.1,0.4-0.2,0.6-0.5
		s0.3-0.5,0.4-0.8c0.1-0.3,0.2-0.6,0.3-0.9c0.1-0.3,0.2-0.5,0.2-0.7c0-0.2,0.1-0.5,0.1-0.8s0-0.6,0.1-0.9s0.1-0.5,0.2-0.7
		s0.2-0.3,0.4-0.3s0.4,0.1,0.6,0.2c0.2,0.1,0.3,0.3,0.3,0.5c0,0.7-0.1,1.2-0.1,1.7s0,0.9,0,1.2c0,0.1,0,0.2,0,0.4s0,0.4,0,0.6
		s0,0.4,0,0.6s0,0.4,0,0.6c0,1.2-0.1,2.4-0.4,3.3c-0.3,1-0.8,1.9-1.5,2.7c-0.1,0.1-0.2,0.2-0.3,0.3c-0.1,0.1-0.3,0.2-0.4,0.3
		s-0.3,0.2-0.5,0.2c-0.2,0.1-0.4,0.1-0.7,0.1c-0.1,0-0.2,0-0.3,0s-0.2-0.1-0.3-0.1s-0.2-0.1-0.2-0.2c-0.1-0.1-0.1-0.2-0.1-0.3
		c0-0.1,0.1-0.1,0.2-0.2c0.2-0.1,0.3-0.2,0.5-0.3s0.4-0.2,0.6-0.3c0.2-0.1,0.4-0.3,0.5-0.4c0.5-0.7,0.9-1.4,1.1-2.2
		c0.2-0.7,0.3-1.5,0.3-2.4c0-0.1,0-0.2,0-0.3s0-0.2,0-0.2c0,0,0,0-0.1,0c-0.1,0.2-0.2,0.3-0.3,0.5c-0.1,0.2-0.3,0.3-0.4,0.4
		s-0.3,0.2-0.5,0.3s-0.3,0.1-0.5,0.1c-0.4,0-0.8-0.1-1-0.4s-0.5-0.6-0.6-1c-0.1-0.4-0.2-0.8-0.3-1.2c0-0.4-0.1-0.8-0.1-1.1
		c0-0.1,0-0.1,0-0.2c0-0.1,0-0.1,0-0.2c0-0.2,0-0.4,0-0.6s0-0.4,0-0.6c0-0.1,0-0.3,0-0.5c0-0.2,0-0.4,0.1-0.5s0.1-0.3,0.2-0.4
		s0.2-0.2,0.3-0.2c0.3,0,0.5,0.1,0.6,0.2c0.1,0.1,0.2,0.2,0.2,0.4s0.1,0.3,0.1,0.5s0,0.4,0.1,0.5c0,0.2,0,0.4,0,0.6s0,0.5,0,0.6
		V67.3z"/>
	<path class="st2" d="M252.3,70.9c-0.2,0-0.4-0.1-0.5-0.2s-0.3-0.2-0.5-0.3c-0.4-0.2-0.7-0.5-0.9-0.9s-0.3-0.8-0.3-1.3
		c0-0.3,0-0.6,0.1-0.9c0.1-0.4,0.2-0.7,0.2-1c0-0.1,0.1-0.3,0.2-0.5c0.1-0.2,0.3-0.5,0.5-0.7s0.4-0.4,0.7-0.6s0.5-0.2,0.8-0.2
		c0.1,0,0.2,0,0.3,0.1c0.2,0.1,0.3,0.2,0.5,0.3c0.2,0.1,0.4,0.1,0.5,0.2c0.2,0.1,0.4,0.1,0.5,0.2s0.3,0.2,0.5,0.3
		c0.1,0.1,0.2,0.2,0.3,0.4s0.1,0.3,0.2,0.4c0.1,0.1,0.1,0.2,0.1,0.4s0,0.2,0,0.4v0.3c0,0.4-0.1,0.7-0.2,1c-0.1,0.3-0.3,0.6-0.5,0.9
		c-0.1,0.2-0.2,0.3-0.4,0.5c-0.2,0.2-0.3,0.4-0.5,0.6s-0.4,0.3-0.6,0.4s-0.4,0.2-0.6,0.2c-0.1,0-0.1,0-0.2,0s-0.1,0-0.2,0H252.3z
		 M254.1,66.7c0-0.3-0.1-0.6-0.4-0.7c-0.2-0.2-0.5-0.2-0.8-0.2c-0.2,0-0.4,0.1-0.6,0.3c-0.2,0.2-0.3,0.4-0.4,0.7s-0.2,0.5-0.3,0.8
		s-0.1,0.6-0.1,0.8c0,0,0,0.1,0,0.3c0,0.1,0,0.3,0.1,0.4s0.1,0.3,0.2,0.4s0.2,0.2,0.3,0.2c0.1,0,0.2,0,0.4-0.1s0.2-0.1,0.4-0.1
		c0.2-0.1,0.4-0.3,0.5-0.5s0.3-0.4,0.3-0.7c0.1-0.2,0.2-0.5,0.2-0.7S254,67,254.1,66.7L254.1,66.7z"/>
	<path class="st2" d="M256.7,65.8c0-0.3,0-0.6,0-0.9s0.1-0.6,0.2-0.9c0,0,0,0,0.1-0.1c0.1,0,0.1-0.1,0.2-0.1c0,0,0.1,0,0.1,0
		s0.1,0,0.1,0c0.2,0,0.4,0.1,0.6,0.2c0.2,0.1,0.3,0.3,0.3,0.5c0,0.2,0,0.4-0.1,0.5s-0.1,0.3-0.1,0.5c0,0.3,0,0.6,0,0.8s0,0.4,0,0.5
		c0,0.6,0,1.1,0.1,1.6c0,0.5,0.1,0.8,0.1,1.1c0.2,0,0.4-0.2,0.6-0.5s0.5-0.7,0.7-1.1s0.4-0.9,0.6-1.3c0.2-0.5,0.3-0.9,0.5-1.2
		c0-0.2,0.1-0.3,0.1-0.5s0-0.3,0-0.4s0.1-0.2,0.2-0.3c0.1-0.1,0.3-0.1,0.6-0.1c0,0,0,0,0,0c0,0,0,0,0,0c0.1,0,0.2,0,0.3,0.1
		c0.1,0.1,0.2,0.2,0.3,0.3c0,0.7,0,1.2-0.1,1.6s-0.1,0.7-0.1,1c0,0.6,0,1,0.1,1.5c0.1,0.4,0.2,0.7,0.4,1c0.1,0.1,0.1,0.2,0.2,0.2
		c0.1,0.1,0.1,0.2,0.2,0.3c0,0.1-0.1,0.2-0.1,0.3s-0.1,0.1-0.2,0.1s-0.1,0-0.2,0.1s-0.2,0-0.2,0.1c-0.3-0.1-0.5-0.2-0.6-0.3
		s-0.3-0.3-0.4-0.6c-0.1-0.2-0.2-0.5-0.2-0.7s-0.1-0.5-0.1-0.8l-0.1,0.1c-0.1,0.2-0.2,0.5-0.4,0.8s-0.3,0.6-0.6,1
		c-0.2,0.3-0.5,0.6-0.7,0.8s-0.6,0.3-0.9,0.3c-0.3,0-0.6-0.1-0.8-0.2s-0.4-0.4-0.5-0.7s-0.2-0.7-0.2-1.2s-0.1-1.1-0.1-1.8
		c0-0.2,0-0.3,0-0.5c0-0.2,0-0.3,0-0.5V65.8z"/>
	<path class="st2" d="M264,70.5c0-0.1,0-0.2,0-0.3c0-0.2,0-0.4,0-0.6c0-0.2,0-0.5,0-0.7s0-0.5,0-0.7c0-0.2,0-0.4,0-0.6s0-0.2,0-0.3
		v-0.6c0-0.3,0-0.5,0-0.8s0-0.5,0-0.8v-0.1c0-0.1,0-0.2-0.1-0.3s-0.1-0.2-0.1-0.3c0-0.2,0.1-0.3,0.2-0.4c0.1-0.1,0.2-0.1,0.4-0.1
		c0.2,0,0.4,0,0.5,0.1c0.1,0.1,0.2,0.2,0.3,0.3s0.1,0.2,0.1,0.4s0,0.3,0,0.4l0.1,0.9c0.1-0.1,0.2-0.2,0.4-0.4
		c0.1-0.2,0.3-0.4,0.4-0.6s0.3-0.4,0.4-0.6s0.3-0.4,0.5-0.5c0.1,0,0.2-0.1,0.4-0.1c0.3,0,0.5,0.1,0.7,0.2s0.3,0.3,0.4,0.5
		c0,0.1-0.1,0.2-0.2,0.4s-0.2,0.3-0.4,0.4c-0.1,0.1-0.3,0.3-0.4,0.5c-0.1,0.2-0.3,0.3-0.4,0.5c-0.2,0.2-0.4,0.4-0.5,0.7
		c-0.2,0.3-0.3,0.5-0.5,0.8s-0.3,0.5-0.4,0.8c-0.1,0.3-0.1,0.5-0.1,0.6c0,0.1,0,0.2,0,0.4s0,0.3,0,0.4c0,0.1,0,0.3,0,0.4
		s-0.1,0.3-0.1,0.4s-0.2,0.2-0.3,0.3s-0.3,0.1-0.5,0.1c-0.2,0-0.4-0.1-0.5-0.2S264,70.8,264,70.5L264,70.5z"/>
	<path class="st2" d="M275.7,70.9c-0.2,0-0.4-0.1-0.5-0.2s-0.3-0.2-0.5-0.3c-0.4-0.2-0.7-0.5-0.9-0.9s-0.3-0.8-0.3-1.3
		c0-0.3,0-0.6,0.1-0.9c0.1-0.4,0.2-0.7,0.2-1c0-0.1,0.1-0.3,0.2-0.5c0.1-0.2,0.3-0.5,0.5-0.7s0.4-0.4,0.7-0.6s0.5-0.2,0.8-0.2
		c0.1,0,0.2,0,0.3,0.1c0.2,0.1,0.3,0.2,0.5,0.3s0.4,0.1,0.5,0.2s0.4,0.1,0.5,0.2s0.3,0.2,0.5,0.3c0.1,0.1,0.2,0.2,0.3,0.4
		s0.1,0.3,0.2,0.4c0.1,0.1,0.1,0.2,0.1,0.4s0,0.2,0,0.4v0.3c0,0.4-0.1,0.7-0.2,1c-0.1,0.3-0.3,0.6-0.5,0.9c-0.1,0.2-0.2,0.3-0.4,0.5
		c-0.2,0.2-0.3,0.4-0.5,0.6s-0.4,0.3-0.6,0.4s-0.4,0.2-0.6,0.2c-0.1,0-0.1,0-0.2,0s-0.1,0-0.2,0H275.7z M277.4,66.7
		c0-0.3-0.1-0.6-0.4-0.7s-0.5-0.2-0.8-0.2c-0.2,0-0.4,0.1-0.6,0.3s-0.3,0.4-0.4,0.7s-0.2,0.5-0.3,0.8s-0.1,0.6-0.1,0.8
		c0,0,0,0.1,0,0.3c0,0.1,0,0.3,0.1,0.4s0.1,0.3,0.2,0.4s0.2,0.2,0.3,0.2c0.1,0,0.2,0,0.4-0.1s0.2-0.1,0.4-0.1
		c0.2-0.1,0.4-0.3,0.5-0.5s0.3-0.4,0.3-0.7c0.1-0.2,0.2-0.5,0.2-0.7S277.4,67,277.4,66.7L277.4,66.7z"/>
	<path class="st2" d="M280.3,68.7c0-0.2,0-0.5-0.1-0.7s-0.1-0.4-0.1-0.7c0-0.3,0-0.7-0.1-1c-0.1-0.3-0.1-0.6-0.1-1
		c0-0.2,0-0.4,0.1-0.6c0-0.2,0.2-0.3,0.4-0.3c0.4,0,0.7,0.1,0.8,0.3c0.1,0.2,0.2,0.4,0.2,0.7c0,0.3,0,0.6,0.1,0.9
		c0.1,0.3,0.1,0.6,0.1,1c0,0.2,0,0.3,0,0.5s0,0.3,0.1,0.4c0.1-0.1,0.2-0.2,0.2-0.3s0.1-0.3,0.2-0.4s0.1-0.3,0.2-0.4
		c0.1-0.1,0.1-0.2,0.2-0.3c0.1-0.1,0.2-0.3,0.2-0.4s0.1-0.3,0.2-0.5s0.2-0.3,0.3-0.4s0.2-0.2,0.3-0.2c0.1,0,0.2,0.1,0.3,0.1
		s0.2,0.1,0.3,0.1c0.1,0.1,0.2,0.1,0.2,0.2c0.1,0.1,0.1,0.2,0.1,0.4c0,0.5,0.1,1,0.2,1.5s0.3,0.9,0.4,1.3c0.2-0.4,0.4-0.7,0.5-1.2
		c0.2-0.4,0.3-0.9,0.4-1.3s0.2-0.8,0.3-1.1c0.1-0.3,0.2-0.6,0.3-0.8c0.1-0.1,0.2-0.2,0.3-0.2c0.2-0.1,0.3-0.1,0.4-0.1
		c0.2,0,0.3,0.1,0.5,0.2s0.2,0.3,0.2,0.4c0,0.1,0,0.2-0.1,0.4s-0.1,0.4-0.2,0.7s-0.2,0.5-0.3,0.8c-0.1,0.3-0.2,0.6-0.3,0.8
		c-0.1,0.3-0.2,0.5-0.3,0.7s-0.1,0.3-0.2,0.4c-0.1,0.2-0.2,0.5-0.3,0.8s-0.2,0.5-0.3,0.7c-0.1,0.2-0.3,0.4-0.4,0.5
		c-0.2,0.1-0.4,0.2-0.7,0.2s-0.5-0.1-0.7-0.3c-0.2-0.2-0.3-0.4-0.4-0.7c-0.1-0.3-0.2-0.6-0.3-1s-0.2-0.6-0.4-0.9
		c-0.1,0.1-0.2,0.3-0.3,0.5c-0.1,0.2-0.2,0.4-0.3,0.6c-0.1,0.2-0.2,0.4-0.3,0.6s-0.2,0.4-0.3,0.5c-0.1,0.1-0.1,0.1-0.1,0.2
		s-0.1,0.1-0.1,0.2s-0.1,0.1-0.2,0.1s-0.2,0.1-0.4,0.1c-0.2,0-0.4-0.1-0.6-0.2s-0.2-0.3-0.3-0.5c-0.1-0.2-0.1-0.4-0.1-0.7
		S280.3,68.9,280.3,68.7L280.3,68.7z"/>
	<path class="st2" d="M290.6,68.3c0.2-0.2,0.3-0.4,0.4-0.6s0.2-0.5,0.3-0.7l0-0.1c0.1-0.2,0.2-0.4,0.3-0.7c0.1-0.3,0.3-0.5,0.5-0.8
		c0.2-0.3,0.4-0.5,0.6-0.6s0.5-0.3,0.7-0.3c0.2,0.1,0.3,0.2,0.4,0.3s0.2,0.3,0.2,0.4s0.1,0.3,0.1,0.5c0,0.2,0.1,0.3,0.2,0.5
		c0.2,0.3,0.3,0.7,0.3,1.1c0.1,0.4,0.1,0.8,0.2,1.2c0.1,0.4,0.1,0.8,0.2,1.2s0.2,0.7,0.3,1.1c0,0.2-0.1,0.3-0.3,0.4
		s-0.3,0.1-0.5,0.1c-0.2,0-0.4-0.1-0.5-0.2s-0.2-0.4-0.3-0.6s-0.1-0.5-0.1-0.7s-0.1-0.5-0.1-0.6c-0.1-0.2-0.1-0.4-0.1-0.7
		c0-0.3-0.1-0.5-0.1-0.8s-0.1-0.5-0.2-0.7c-0.1-0.2-0.2-0.4-0.3-0.5c-0.2,0.3-0.4,0.6-0.5,0.9s-0.2,0.5-0.3,0.8s-0.2,0.5-0.3,0.7
		c-0.1,0.2-0.2,0.5-0.4,0.7c-0.2,0.3-0.4,0.6-0.5,0.8s-0.3,0.3-0.4,0.4s-0.3,0.1-0.4,0.2c-0.1,0-0.2,0-0.3,0c-0.1,0-0.3-0.1-0.4-0.2
		s-0.3-0.3-0.3-0.4c0-0.7,0-1.4,0-2.1c0-0.6,0-1.3,0-2c0-0.2,0-0.4,0-0.6c0-0.2,0-0.4,0-0.6c0-0.1,0-0.3,0.1-0.4s0.1-0.2,0.3-0.3
		c0.1,0,0.1,0,0.2,0c0.1,0,0.1,0,0.2,0c0.2,0,0.3,0,0.4,0.1s0.2,0.2,0.2,0.3s0.1,0.3,0.1,0.4s0,0.3,0,0.4c0,0.1,0,0.3,0,0.4
		s0,0.2,0,0.4c0,0.4,0,0.8,0,1.1C290.6,67.6,290.6,67.9,290.6,68.3L290.6,68.3z"/>
	<path class="st2" d="M303,67.3c0.2,0.4,0.5,0.9,0.7,1.3c0.2,0.5,0.3,1,0.3,1.5c0,0.3,0,0.6-0.1,0.8s-0.2,0.5-0.4,0.7
		c-0.2,0.2-0.4,0.4-0.6,0.5s-0.5,0.2-0.8,0.2c-0.2,0-0.5-0.1-0.7-0.3s-0.3-0.4-0.3-0.7c0-0.1,0.1-0.2,0.1-0.2s0.1-0.1,0.3-0.1
		c0.1,0.1,0.3,0.2,0.4,0.2c0.2,0,0.4-0.1,0.5-0.3s0.2-0.4,0.2-0.7c0-0.1,0-0.2,0-0.2c-0.1-0.5-0.3-1-0.5-1.4
		c-0.2-0.4-0.4-0.8-0.6-1.2s-0.4-0.7-0.5-1.1s-0.2-0.7-0.2-1c0-0.3,0-0.6,0.1-0.9s0.1-0.6,0.2-0.8s0.3-0.5,0.5-0.6s0.4-0.2,0.7-0.2
		c0,0,0.1,0,0.1,0s0.1,0,0.1,0c0.1,0,0.2,0.1,0.3,0.2s0.1,0.2,0.2,0.3c0,0.1,0,0.2-0.1,0.2s-0.1,0.1-0.2,0.2
		c-0.1,0.2-0.2,0.4-0.3,0.6c-0.1,0.2-0.1,0.5-0.1,0.7v0.4c0,0.1,0,0.2,0.1,0.4s0.1,0.3,0.2,0.5s0.2,0.3,0.2,0.5
		c0.1,0.1,0.1,0.3,0.2,0.3L303,67.3z"/>
	<path class="st2" d="M311.1,70.5c0,0.1,0.1,0.2,0.1,0.3s0.1,0.2,0.1,0.3s0,0.2-0.1,0.2s-0.1,0.1-0.2,0.1s-0.2,0.1-0.2,0.1
		c-0.1,0-0.2,0-0.2,0c-0.2,0-0.4-0.1-0.6-0.4s-0.3-0.6-0.4-1c-0.1-0.4-0.2-0.8-0.2-1.2c-0.1-0.4-0.1-0.8-0.2-1.2
		c0,0.2-0.2,0.6-0.3,0.9c-0.2,0.4-0.4,0.7-0.7,1.1c-0.3,0.3-0.6,0.6-1,0.9S306.4,71,306,71c-0.3,0-0.5-0.1-0.7-0.2s-0.3-0.2-0.4-0.4
		c-0.1-0.2-0.2-0.3-0.2-0.6c0-0.2-0.1-0.4-0.1-0.6c0-0.4,0.1-0.9,0.3-1.4c0.2-0.6,0.5-1.1,0.8-1.7s0.7-1,1.2-1.4s0.9-0.6,1.4-0.6
		c0.1,0,0.2,0,0.4,0.1c0.1,0,0.3,0.1,0.4,0.1c0.1,0.1,0.3,0.1,0.4,0.2s0.2,0.1,0.3,0.2c0.2,0.2,0.3,0.4,0.4,0.7
		c0.1,0.3,0.1,0.6,0.2,0.9c0.1,0.6,0.1,1.1,0.2,1.6c0,0.5,0.1,1,0.3,1.5l0.1,0.7L311.1,70.5z M306.1,69.5
		C306.1,69.5,306.1,69.6,306.1,69.5C306.1,69.6,306.1,69.6,306.1,69.5c0.2,0,0.3-0.1,0.5-0.3s0.4-0.4,0.6-0.7
		c0.2-0.3,0.4-0.6,0.6-0.9c0.2-0.3,0.3-0.6,0.4-0.8c0-0.1,0.1-0.2,0.2-0.4s0.1-0.3,0.2-0.4s0.1-0.3,0.2-0.4s0.1-0.2,0.1-0.3
		c-0.1,0-0.1,0-0.2-0.1c0,0-0.1,0-0.2,0c-0.3,0-0.5,0.1-0.7,0.3c-0.2,0.2-0.4,0.4-0.5,0.7s-0.3,0.5-0.4,0.7
		c-0.1,0.2-0.2,0.4-0.2,0.4c-0.2,0.3-0.3,0.6-0.4,0.9C306.2,68.8,306.1,69.1,306.1,69.5L306.1,69.5z"/>
	<path class="st2" d="M313.2,73.4c0-0.3,0-0.6,0-0.9s0-0.6,0-0.9c0-0.2,0-0.5,0-0.7s0-0.5,0-0.7v-0.3c-0.1,0-0.1,0-0.2,0
		c-0.1,0-0.1,0-0.2,0c-0.3,0-0.6-0.1-0.7-0.2c-0.2-0.1-0.2-0.3-0.2-0.5c0-0.1,0-0.2,0.1-0.2s0.2-0.1,0.4-0.1s0.3-0.1,0.4-0.1
		c0.1,0,0.3-0.1,0.4-0.1c0-1,0.1-1.9,0.1-2.8c0.1-0.9,0.1-1.7,0.1-2.3c0-0.3,0-0.6,0-1c0-0.4,0.1-0.7,0.1-1c0-0.3,0.1-0.7,0.2-0.9
		c0.1-0.3,0.2-0.5,0.3-0.6l0.1-0.1c0.1-0.1,0.2-0.3,0.4-0.4s0.3-0.2,0.5-0.2c0.1,0,0.1,0,0.2,0.1s0.2,0.1,0.3,0.1s0.2,0.1,0.2,0.2
		s0.1,0.1,0.1,0.2c0,0.1,0,0.2,0,0.3s-0.1,0.1-0.1,0.2s-0.1,0.1-0.1,0.1s-0.1,0.1-0.1,0.1c-0.1,0.1-0.1,0.2-0.2,0.4
		s-0.1,0.3-0.1,0.4c0,0.1-0.1,0.3-0.1,0.4s0,0.2,0,0.3c0,0.6-0.1,1-0.1,1.5s-0.1,0.9-0.1,1.3s0,0.8-0.1,1.2c0,0.4,0,0.8,0,1.2
		c0,0.1,0,0.2,0,0.3s0,0.2,0,0.3c0,0.2,0,0.2,0,0.3s0.1,0,0.3,0c0.1,0,0.3,0,0.4,0s0.3-0.1,0.5-0.1s0.3-0.1,0.4-0.1s0.2,0,0.3,0
		c0.2,0,0.3,0,0.4,0.1s0.1,0.2,0.1,0.4c0,0.2-0.2,0.4-0.4,0.5c-0.3,0.1-0.5,0.2-0.8,0.3s-0.5,0.2-0.8,0.3c-0.2,0.1-0.4,0.3-0.4,0.5
		c0,0.6,0,1.3,0,1.9c0,0.7,0.1,1.3,0.1,1.8c0,0.6,0.1,1.1,0.1,1.5s0,0.8,0,1c0,0.2-0.1,0.4-0.2,0.4s-0.3,0.1-0.4,0.1
		c-0.2,0-0.4-0.1-0.6-0.3c-0.1-0.2-0.2-0.5-0.3-0.8s-0.1-0.6-0.1-0.9c0-0.3,0-0.6,0-0.8V73.4z"/>
	<path class="st2" d="M317.6,67.8c0-0.4,0.1-0.9,0.2-1.3s0.3-0.8,0.5-1.2c0.2-0.4,0.5-0.6,0.8-0.9s0.7-0.3,1.1-0.3
		c0.3,0,0.6,0,0.8,0.1c0.2,0.1,0.4,0.2,0.6,0.4s0.3,0.3,0.3,0.5s0.1,0.4,0.1,0.6c0,0.3,0,0.5-0.1,0.8s-0.2,0.5-0.4,0.7
		s-0.4,0.4-0.7,0.5s-0.6,0.2-0.9,0.2c-0.2,0-0.3,0-0.4,0s-0.3-0.1-0.4-0.1c0,0.1,0,0.1,0,0.1s0,0.1,0,0.1c0,0.4,0.1,0.8,0.2,1
		s0.3,0.4,0.4,0.6c0.2,0.1,0.3,0.2,0.4,0.2s0.2,0.1,0.3,0.1c0.4,0,0.7-0.1,0.9-0.2c0.2-0.2,0.5-0.3,0.8-0.5c0.1,0,0.1,0,0.2,0.1
		s0.1,0.1,0.2,0.2c0,0.1,0,0.1,0,0.2c0,0,0,0.1,0,0.2c0,0.2-0.1,0.3-0.1,0.4s-0.2,0.2-0.3,0.3c-0.3,0.3-0.6,0.4-0.9,0.5
		s-0.6,0.1-1,0.1c-0.2,0-0.4,0-0.7-0.1c-0.3-0.1-0.5-0.2-0.7-0.3c-0.3-0.2-0.5-0.4-0.7-0.6c-0.2-0.2-0.3-0.4-0.4-0.7
		s-0.1-0.5-0.2-0.7C317.6,68.4,317.6,68.1,317.6,67.8z M319.1,66.9c0,0,0.1,0,0.2,0c0.1,0,0.2,0,0.2,0c0.4,0,0.7-0.1,0.9-0.3
		s0.3-0.4,0.3-0.7c0-0.2,0-0.3-0.1-0.5s-0.2-0.2-0.4-0.2c-0.1,0-0.2,0-0.3,0s-0.2,0.1-0.3,0.2c0,0.1-0.1,0.1-0.2,0.2
		c-0.1,0.1-0.1,0.1-0.2,0.2s-0.1,0.2-0.1,0.4S319.2,66.6,319.1,66.9z"/>
</g>
<g class="st4">
	<path class="st2" d="M324.7,59.6c0-0.1,0-0.3,0.1-0.5c0.1,0,0.2-0.1,0.2-0.1s0.1,0,0.2,0c0.2,0,0.4,0,0.5,0.1s0.2,0.2,0.3,0.3
		s0.1,0.2,0.1,0.4c0,0.1,0,0.3,0,0.4c0,0.2,0,0.5,0,0.6s0,0.4,0,0.5c0,0.2,0,0.4,0,0.6s0,0.4,0,0.6c0,0.1,0,0.3,0,0.4
		c0,0.1,0,0.3,0,0.4c0,0.1,0,0.1,0,0.2s0.1,0.1,0.2,0.1c0.3,0,0.6,0,0.8-0.1s0.5-0.1,0.8-0.1c0.2,0,0.3,0.1,0.3,0.2
		c0.1,0.1,0.1,0.3,0.1,0.4c0,0.2,0,0.3-0.1,0.4s-0.2,0.2-0.3,0.2s-0.2,0.1-0.3,0.1s-0.2,0.1-0.4,0.1c-0.1,0-0.2,0.1-0.4,0.1
		c-0.1,0-0.3,0.1-0.4,0.1s-0.2,0.1-0.3,0.2s-0.1,0.2-0.1,0.4c0,0.1,0,0.2,0,0.2c0,0.1,0,0.1,0,0.2s0,0.1,0,0.2s0,0.2,0,0.2
		c0,0.5,0,1.1,0.1,1.6c0.1,0.6,0.2,1.1,0.3,1.6c0,0.2,0.1,0.3,0.1,0.5s0.1,0.3,0.1,0.5c0,0.2-0.1,0.3-0.2,0.4s-0.2,0.2-0.4,0.2
		c-0.1,0-0.2,0-0.2,0c-0.2,0-0.3-0.1-0.4-0.2c-0.1-0.1-0.2-0.2-0.3-0.4c-0.1-0.2-0.1-0.4-0.1-0.7c0-0.3-0.1-0.5-0.1-0.8
		c0-0.6-0.1-1.1-0.1-1.7c0-0.6,0-1.1,0-1.7c0,0,0-0.1,0-0.1c0,0,0-0.1,0-0.1c-0.2,0-0.4,0.1-0.5,0.2c-0.1,0.1-0.3,0.1-0.5,0.1
		c-0.2,0-0.4-0.1-0.6-0.2c-0.2-0.2-0.3-0.3-0.4-0.4c0-0.1,0-0.3,0.1-0.5c0.2-0.1,0.3-0.1,0.4-0.1s0.3,0,0.4-0.1s0.2-0.1,0.4-0.1
		c0.1,0,0.3-0.1,0.4-0.2c0.2,0,0.3-0.1,0.3-0.2c0-0.1,0-0.3,0-0.4c0-0.2,0-0.4,0-0.5s0-0.4,0-0.6c0-0.2,0-0.4,0-0.5s0-0.4,0-0.5
		V59.6z"/>
</g>
<g class="st4">
	<path class="st2" d="M330.1,67.3c0,0.2,0,0.4,0,0.6s0,0.5,0.1,0.7c0,0.2,0.1,0.5,0.1,0.7s0.2,0.3,0.3,0.4c0.2-0.1,0.4-0.2,0.6-0.5
		s0.3-0.5,0.4-0.8c0.1-0.3,0.2-0.6,0.3-0.9c0.1-0.3,0.2-0.5,0.2-0.7c0-0.2,0.1-0.5,0.1-0.8s0-0.6,0.1-0.9s0.1-0.5,0.2-0.7
		s0.2-0.3,0.4-0.3s0.4,0.1,0.6,0.2c0.2,0.1,0.3,0.3,0.3,0.5c0,0.7-0.1,1.2-0.1,1.7s0,0.9,0,1.2c0,0.1,0,0.2,0,0.4s0,0.4,0,0.6
		s0,0.4,0,0.6s0,0.4,0,0.6c0,1.2-0.1,2.4-0.4,3.3c-0.3,1-0.8,1.9-1.5,2.7c-0.1,0.1-0.2,0.2-0.3,0.3c-0.1,0.1-0.3,0.2-0.4,0.3
		s-0.3,0.2-0.5,0.2c-0.2,0.1-0.4,0.1-0.7,0.1c-0.1,0-0.2,0-0.3,0s-0.2-0.1-0.3-0.1s-0.2-0.1-0.2-0.2c-0.1-0.1-0.1-0.2-0.1-0.3
		c0-0.1,0.1-0.1,0.2-0.2c0.2-0.1,0.3-0.2,0.5-0.3s0.4-0.2,0.6-0.3c0.2-0.1,0.4-0.3,0.5-0.4c0.5-0.7,0.9-1.4,1.1-2.2
		c0.2-0.7,0.3-1.5,0.3-2.4c0-0.1,0-0.2,0-0.3s0-0.2,0-0.2c0,0,0,0-0.1,0c-0.1,0.2-0.2,0.3-0.3,0.5c-0.1,0.2-0.3,0.3-0.4,0.4
		s-0.3,0.2-0.5,0.3s-0.3,0.1-0.5,0.1c-0.4,0-0.8-0.1-1-0.4s-0.5-0.6-0.6-1c-0.1-0.4-0.2-0.8-0.3-1.2c0-0.4-0.1-0.8-0.1-1.1
		c0-0.1,0-0.1,0-0.2c0-0.1,0-0.1,0-0.2c0-0.2,0-0.4,0-0.6s0-0.4,0-0.6c0-0.1,0-0.3,0-0.5c0-0.2,0-0.4,0.1-0.5s0.1-0.3,0.2-0.4
		s0.2-0.2,0.3-0.2c0.3,0,0.5,0.1,0.6,0.2c0.1,0.1,0.2,0.2,0.2,0.4s0.1,0.3,0.1,0.5s0,0.4,0.1,0.5c0,0.2,0,0.4,0,0.6s0,0.5,0,0.6
		V67.3z"/>
	<path class="st2" d="M335.5,71c0-0.2,0.1-0.3,0.3-0.4c0.1-0.1,0.2-0.1,0.3-0.2s0.2-0.1,0.2-0.1c0.2,0,0.4,0.1,0.6,0.2
		s0.3,0.3,0.3,0.5c0,0,0,0,0,0.1s0,0,0,0.1c0,0.2,0,0.3-0.1,0.4s-0.2,0.2-0.2,0.2c-0.1,0-0.1,0-0.2,0.1s-0.1,0.1-0.2,0.1
		C336,71.8,335.6,71.4,335.5,71z M336.9,69.8c-0.6-0.1-0.9-0.4-1-0.9c0-0.1,0-0.3,0-0.4c0-0.1,0-0.2,0-0.4c0-0.6,0-1.2,0.1-1.9
		c0.1-0.7,0.2-1.4,0.4-2.2c0.3-1.2,0.5-2.1,0.6-2.8c0.1-0.7,0.2-1.1,0.2-1.2c0-0.1,0.1-0.2,0.2-0.3c0.1-0.1,0.2-0.1,0.3-0.1
		c0,0,0.1,0,0.2,0l0.6,0.2c0.2,0.1,0.3,0.2,0.3,0.4c-0.1,0.9-0.4,2.3-0.9,4.5c-0.4,1.7-0.6,3.2-0.6,4.3v0.3c0,0.1,0,0.2-0.1,0.3
		S337.1,69.8,336.9,69.8L336.9,69.8z"/>
</g>
</svg>
